<svg width="320" height="330" viewBox="0 0 320 330" fill="none" xmlns="http://www.w3.org/2000/svg">
<path d="M195.102 142.056C183.836 153.781 184.854 160.536 172.97 165.097C169.986 166.224 166.324 167.452 161.644 168.529C158.89 160.027 151.965 151.586 144.64 151.586C139.571 151.586 133.704 154.23 126.948 157.214C119.015 160.706 111.751 164.707 109.436 166.224L112.539 170.385C114.904 169.088 121.719 165.705 128.535 162.782C134.452 160.247 139.801 158.161 143.393 158.161C149.201 158.161 152.973 164.757 155.058 170.046C147.454 171.852 134.951 172.291 131.179 172.291C129.433 172.291 128.804 172.581 128.196 173.09C127.627 173.598 127.178 174.487 126.898 175.734L126.449 177.65H130.501C151.556 177.65 171.453 174.327 184.236 166.554C186.042 167.052 187.618 167.392 189.644 167.392C196.958 167.392 204.522 163.4 209.242 159.738C210.938 158.441 211.328 157.263 211.328 155.966C211.328 155.348 211.268 154.779 211.208 154.21L210.988 152.015C204.233 157.363 198.605 161.365 191.62 161.365C190.382 161.365 189.474 161.255 188.746 161.025C195.561 150.099 201.648 140.409 216.576 132.526C215 131.568 212.745 130.102 211.567 129.313C205.75 131.858 200.002 136.927 195.102 142.056Z" fill="white"/>
<path d="M171.842 145.319C167.052 145.319 167.501 137.146 167.162 130.68C150.268 132.307 139.681 137.326 128.066 143.573L129.423 148.752C139.95 142.445 150.089 138.843 160.846 137.775C160.965 143.962 163.61 152.254 170.655 152.254C178.199 152.254 187.369 140.419 198.136 126.559L200.96 122.897C199.493 121.769 197.866 120.751 196.849 119.803C185.812 134.003 176.243 145.319 171.842 145.319Z" fill="white"/>
<path d="M142.335 57.3373C139.571 57.8961 137.546 58.405 135.121 58.405C133.544 58.405 131.738 58.1755 129.603 57.6766C127.966 57.2774 126.22 56.9381 123.755 56.9381C119.305 56.9381 114.515 58.6245 111.242 61.7778C105.265 67.4656 104.935 73.6025 104.536 79.0608C104.037 86.3352 102.68 88.1413 98.7486 93.43C95.5355 97.7607 91.1349 103.459 87.7621 109.486C88.8398 109.985 92.3822 111.9 93.6196 112.579C97.5013 106.732 102.91 99.517 106.452 94.0487C109.665 89.0993 110.962 86.9539 111.182 80.3081C111.242 79.1805 111.242 78.1128 111.352 77.0351C111.641 73.6025 112.539 70.1099 115.812 66.8968C118.227 64.462 121.719 63.2347 125.222 63.2347C128.595 63.2347 130.57 64.1926 133.494 64.1926C135.58 64.1926 137.106 63.6837 138.444 63.1848L139.521 62.7856L136.927 68.9823L143.004 71.4571C139.122 73.8719 130.61 84.2896 130.61 96.6332C130.61 101.074 131.289 105.185 132.247 108.847C132.357 109.236 132.576 109.635 133.195 109.635C133.764 109.635 134.163 109.296 134.213 108.687L134.273 107.39C134.452 103.618 134.722 97.651 136.238 92.3024C138.773 83.2917 145.588 74.8398 152.414 70.7785L142.724 66.5575L146.886 56.3594L142.335 57.3373Z" fill="white"/>
<path d="M171.613 16.2852C167.95 16.2852 166.943 19.8276 166.943 21.8033C166.943 23.38 167.501 25.246 169.477 25.246C171.104 25.246 173.129 24.0685 174.706 22.7613C176.233 21.5239 177.241 20.5161 177.241 19.4983C177.241 18.5503 176.343 17.6423 174.985 17.0236C174.047 16.5646 172.86 16.2852 171.613 16.2852Z" fill="white"/>
<path d="M149.201 87.812L146.496 93.0009H175.275L173.139 87.812H149.201Z" fill="white"/>
<path d="M115.912 40.0542C117.429 39.1462 118.726 37.8589 118.726 36.5018C118.726 35.8832 118.456 35.2645 117.828 34.6957C116.76 33.6879 115.293 33.179 114.056 33.179C111.232 33.179 109.775 35.8233 109.775 38.2481C109.775 40.1041 110.683 41.1718 112.419 41.1718C113.487 41.1818 114.734 40.7228 115.912 40.0542Z" fill="white"/>
<path d="M283.314 143.413L286.068 145.329C286.457 145.608 286.746 145.778 287.085 145.778C287.654 145.778 288.043 145.219 288.043 144.77C288.043 144.491 287.924 144.201 287.594 143.922C279.362 136.428 270.521 127.307 262.239 118.516C255.762 111.591 249.117 104.277 243.259 96.8926C242.86 96.3837 242.531 96.1542 242.072 96.1542C241.403 96.1542 241.064 96.6032 241.064 97.1121C241.064 97.9004 241.623 98.8484 243.03 101.223C247.301 108.488 252.599 115.812 259.135 122.677C266.18 130.161 274.462 137.146 283.314 143.413Z" fill="white"/>
<path d="M247.889 245.185H241.184C239.437 245.185 238.26 245.804 237.412 246.822C236.733 247.66 236.284 248.738 236.284 250.204V323.927C236.284 325.393 236.733 326.461 237.412 327.309C238.26 328.327 239.437 328.946 241.184 328.946H247.889C249.636 328.946 250.813 328.327 251.661 327.309C252.34 326.471 252.789 325.393 252.789 323.927V250.204C252.789 248.738 252.34 247.67 251.661 246.822C250.813 245.804 249.636 245.185 247.889 245.185Z" fill="white"/>
<path d="M131.459 71.1976C131.459 70.4692 131.129 69.7307 130.281 69.1719C129.333 68.4934 128.146 68.214 127.078 68.214C124.703 68.214 123.755 69.621 123.296 71.0878C123.077 71.7664 123.027 72.435 123.027 73.0037C123.027 75.0294 123.925 76.4364 125.392 76.4364C127.407 76.4364 131.459 73.6224 131.459 71.1976Z" fill="white"/>
<path d="M53.5554 140.369L53.9645 142.784C54.1241 143.802 54.5233 144.64 55.3615 145.039C56.3793 145.548 57.8462 145.608 60.3807 145.608C66.797 145.608 71.477 144.82 74.1812 144.141C81.1064 154.439 90.626 158.391 99.8063 158.391C107.64 158.391 115.573 155.517 123.176 151.346L121.759 146.217C114.335 150.398 106.622 153.152 99.8063 153.152C92.2026 153.152 85.4371 149.879 79.8092 141.377C77.4442 137.785 75.5882 133.275 73.323 129.273C70.6188 124.543 67.6951 122.009 62.576 122.009C57.8961 122.009 53.3358 123.935 48.4962 126.01L48.7157 127.078C49.1049 128.824 49.7934 130.062 51.4299 130.062C52.1583 130.062 52.8968 129.722 53.2859 129.613C55.9901 128.764 57.9559 128.036 60.72 128.036C64.941 128.036 66.9666 130.511 69.8405 136.598L70.9182 138.853C67.9845 139.851 61.1192 140.369 56.0001 140.369H53.5554Z" fill="white"/>
<path d="M288.941 266.42C269.393 266.42 258.407 281.687 258.407 297.793C258.407 314.976 270.182 330.073 289.041 330.073C298.461 330.073 307.691 326.521 312.99 320.274C315.295 317.56 317.161 313.788 317.161 311.483C317.161 310.695 316.991 310.016 316.542 309.517C316.093 308.949 315.415 308.609 314.237 308.609H305.177C303.371 308.609 302.133 309.278 301.225 310.645C298.581 314.527 294.759 316.562 289.121 316.562C280.669 316.562 275.201 310.136 274.812 303.091H314.128C315.864 303.091 317.121 302.702 317.959 301.854C318.917 300.956 319.366 299.659 319.366 297.244C319.366 289.86 317.061 282.196 312.212 276.348C307.242 270.421 299.589 266.42 288.941 266.42ZM274.911 291.087C275.65 284.162 280.949 278.983 288.991 278.983C296.884 278.983 302.343 284.162 303.081 291.087H274.911Z" fill="white"/>
<path d="M265.911 29.7463H266.819C266.819 30.1354 266.759 30.5945 266.759 30.9836C266.759 37.35 270.032 42.0799 278.085 42.0799C283.034 42.0799 290.817 39.5952 298.132 37.1205C304.209 35.035 309.787 32.8995 312.551 32.1112V25.3457C309.398 26.3036 302.981 28.7783 296.336 31.0834C289.351 33.5082 282.475 35.7135 278.474 35.7135C274.083 35.7135 272.846 33.2887 272.846 29.8461C272.846 22.7512 277.296 12.5631 280.11 6.75549H273.295C269.753 13.6308 255.782 35.6536 248.239 44.7741L252.569 49.4541C256.611 44.9537 261.061 37.2901 265.911 29.7463Z" fill="white"/>
<path d="M218.193 29.6366C212.505 24.1683 208.174 17.9715 205.41 14.9879C199.263 8.28227 191.33 0 178.268 0C165.645 0 157.313 8.2224 154.609 15.3272C153.811 17.3628 153.202 19.8276 152.633 20.7356C151.396 22.7613 145.818 32.2809 143.513 36.0528H153.93L148.861 45.6323C154.769 44.3251 158.99 43.3672 164.628 43.3672C169.637 43.3672 173.249 44.5546 174.826 47.7079C177.759 53.5653 177.759 71.2974 182.709 84.6588C187.319 97.2219 198.595 109.506 211.268 118.895L211.827 119.075C212.445 119.075 212.834 118.616 212.834 118.167C212.834 117.828 212.725 117.608 212.445 117.319C201.848 106.732 193.236 95.0166 188.626 82.1741C184.066 69.6709 184.794 52.0985 180.793 44.2652C178.149 39.0863 172.521 37.7292 167.332 37.7292C163.171 37.7292 159.279 38.5774 157.473 38.9666L162.043 31.2431H154.32C155.946 28.3693 157.653 25.7249 158.491 24.1483C159.219 22.7912 159.509 21.1048 160.407 18.7998C163.34 11.4156 169.816 6.73558 178.268 6.73558C188.856 6.73558 195.052 13.551 201.199 20.3764C204.013 23.5197 208.643 30.1155 213.982 35.015C217.644 38.3978 224.619 42.1597 235.376 53.266C241.583 59.6822 248.787 68.0244 256.391 79.1805C283.593 119.005 301.455 154.09 311.413 181.462L311.244 181.571C282.685 162.193 257.968 143.892 238.02 121.31C223.881 105.255 211.607 86.6745 200.9 62.9453C200.171 61.3786 199.543 59.9117 198.864 58.395C198.595 57.7763 198.305 57.6067 197.856 57.6067C197.288 57.6067 196.889 57.9958 196.889 58.5546C196.889 59.1733 197.178 60.5304 197.787 63.2247C203.484 87.7821 219.251 109.805 236.095 128.116C252.879 146.307 271.868 161.973 287.465 173.339L299.639 208.154C299.918 209.003 300.247 209.891 300.247 210.749C300.247 211.368 300.088 211.876 299.698 212.216C299.359 212.545 298.91 212.725 297.892 212.725H294.23C292.653 212.725 292.035 212.495 291.476 212.046C290.907 211.597 290.508 210.918 290.239 210.13C289.171 206.867 282.735 188.556 281.507 184.844C281.288 184.166 280.889 183.946 280.44 183.946C279.881 183.946 279.492 184.395 279.492 184.904C279.492 185.353 279.661 185.862 279.941 187.439C281.567 195.771 283.483 205.131 284.271 208.673C284.621 210.32 285.01 211.837 285.01 212.964C285.01 213.972 284.78 214.541 283.942 215.379L280.16 219.211C279.262 220.119 278.763 220.338 278.025 220.338C277.117 220.338 276.388 219.73 276.049 218.153C271.768 198.156 265.292 173.359 263.606 166.494C263.207 164.967 262.927 164.119 262.029 164.119C261.241 164.119 260.951 164.687 260.951 165.366C260.951 165.875 261.061 166.494 261.131 166.943C262.139 174.037 266.25 199.902 270.7 223.502C271.489 227.563 273.006 229.808 276.508 229.808C278.085 229.808 279.601 229.189 281.008 227.822C283.313 225.517 283.992 224.899 286.756 222.194C288.732 220.278 290.079 219.49 293.452 219.49H301.794C303.76 219.49 304.837 218.991 305.785 218.083C306.693 217.235 307.252 216.057 307.252 214.371C307.252 212.635 306.803 211.218 306.185 209.472C304.049 203.734 297.174 184.305 295.158 178.837L295.318 178.727C302.363 184.076 312.611 190.891 317.121 190.891C318.518 190.891 319.366 190.273 319.366 188.077C319.366 177.71 302.133 135.081 262.758 76.3865C241.802 45.1234 223.382 34.586 218.193 29.6366Z" fill="white"/>
<path d="M267.647 68.7229C274.752 65.7891 281.108 63.8832 286.846 63.8832C294.899 63.8832 301.495 63.8832 312.531 61.2888V56.1099C306.334 57.2374 299.748 58.5846 295.467 58.5846C292.933 58.5846 292.194 58.2453 292.194 57.4071C292.194 56.9081 292.534 56.5589 293.492 56.1697C300.247 53.2959 312.361 48.4463 319.346 45.9117V39.0464C305.316 44.2253 280.709 54.4135 263.925 63.5439C264.384 64.0928 267.318 68.2139 267.647 68.7229Z" fill="white"/>
<path d="M75.189 67.8148C67.256 77.2147 63.0849 84.8284 56.1498 101.722C57.2774 101.603 58.9139 101.493 60.72 101.493C61.6281 101.493 62.3565 101.493 63.534 101.553L64.3722 99.7465C68.2639 91.4043 73.5026 80.1484 80.827 71.477L83.3615 68.4934C90.9154 59.6423 95.5854 54.4035 98.5191 42.3593C99.5369 38.0785 100.375 34.2467 103.249 31.4926C105.843 29.0179 109.116 27.9402 112.429 27.9402C115.243 27.9402 117.339 28.6187 120.372 29.906C123.126 31.0835 124.144 31.313 127.078 31.313C128.086 31.313 128.814 31.2531 129.493 31.2032L125.551 36.5019L130.9 40.2738C124.194 42.2396 120.642 48.7257 119.464 51.7093C119.245 52.328 119.125 52.7171 119.125 53.1163C119.125 53.5653 119.354 54.0144 120.023 54.0144C120.761 54.0144 121.32 53.4556 122.278 52.328C125.551 48.3764 128.146 45.6822 140.19 41.9103L131.678 35.484L138.104 26.0842H132.077C128.255 26.0842 125.721 26.0243 122.388 24.5075C117.878 22.422 115.573 21.5239 111.571 21.5239C106.672 21.5239 102.221 23.2702 98.559 26.643C94.338 30.5346 93.0308 35.7235 91.5141 41.4014C90.3366 45.802 88.9196 50.6416 85.7764 55.0921C83.132 58.864 81.2261 60.72 75.189 67.8148Z" fill="white"/>
<path d="M26.4135 46.69C12.613 46.69 6.75554 53.3358 6.75554 57.7863C2.64434 59.4827 0 64.0429 0 68.2639C0 76.6559 6.13686 82.6331 14.2495 82.6331C16.9537 82.6331 19.7178 81.5554 21.6337 80.0985C23.0407 80.5975 24.8368 80.8769 26.6929 80.8769C30.5845 80.8769 34.9153 79.5198 37.9687 75.0793C38.4178 75.1391 38.8169 75.1391 39.2659 75.1391C44.2153 75.1391 48.5062 71.8662 50.7514 67.5853C51.3102 66.5276 51.5397 65.6694 51.5397 65.0607C51.5397 64.442 51.2603 63.9331 50.6416 63.9331C49.8533 63.9331 49.7335 64.6716 48.3265 65.9588C45.1733 68.8326 40.3337 69.9103 35.3743 69.9103C32.9495 73.4528 29.9659 75.3188 26.5332 75.3188C23.9986 75.3188 22.0328 74.6402 19.9972 73.2931C18.3607 75.0992 16.335 75.8277 14.3692 75.8277C9.91877 75.8277 6.76552 72.7243 6.76552 68.214C6.76552 65.0607 8.79118 62.2467 11.6052 61.1691C12.1041 55.591 18.0713 51.8191 25.5154 51.8191C26.4733 51.8191 27.4313 51.869 28.4491 51.9887C29.5767 50.1925 32.2809 48.2767 36.1127 47.7677C36.901 47.658 37.5097 47.5981 37.9687 47.3786C38.4178 47.1491 38.6373 46.7 38.6373 46.2011C38.6373 45.7521 38.4677 45.3529 38.0286 45.0735C37.6394 44.844 36.9509 44.7342 36.1726 44.5746C32.6202 43.896 28.3992 41.7007 26.2538 36.3522C17.742 36.3522 11.5054 29.5268 11.5054 21.8732V21.3543C8.68142 20.2267 6.7755 17.5225 6.7755 14.3193C6.7755 10.0884 10.0984 6.71562 14.3193 6.71562C16.8539 6.71562 19.0492 7.95297 20.4662 9.809C21.6437 9.46973 22.9908 9.35996 24.288 9.35996C30.5945 9.35996 37.36 13.3614 38.6473 21.1348C46.7599 21.8732 48.6758 28.7385 49.1947 31.6123C49.4641 33.0792 49.6936 34.3165 50.6615 34.3165C51.6694 34.3165 51.8989 33.189 52.2382 31.6722C52.8568 28.7884 53.9246 26.4833 56.07 24.6872C56.07 17.3129 61.5882 10.9466 69.4214 10.9466C70.5989 8.35212 73.1933 6.55597 76.2867 6.55597C80.5176 6.55597 83.8904 9.81898 83.8904 14.1597C83.8904 16.6943 82.7129 18.8896 80.8469 20.2367C81.2461 21.7035 81.5155 23.0008 81.5155 24.2381C81.5155 28.978 78.7015 32.2909 73.5226 34.0371C72.8441 36.921 71.6067 39.5054 69.581 41.4213C66.1983 44.6943 62.7656 44.6943 62.7656 46.0414C62.7656 46.7699 63.2646 47.2289 64.6815 47.2289C70.9381 47.2289 77.075 43.7264 77.8034 37.9288C83.7806 35.9031 87.3829 29.8661 87.3829 25.0863C87.3829 23.8489 87.2732 22.7812 86.7643 21.7634C88.4008 20.1968 90.3167 17.4926 90.3167 13.4911C90.3167 9.9986 88.7899 6.45618 86.0957 3.85175C83.6908 1.52673 80.368 0 76.4863 0C70.8583 0 67.1961 3.04348 65.1006 6.0271C58.9638 6.0271 51.0308 12.8425 51.0308 22.5916H50.1826C49.6238 19.2089 46.1213 16.9637 43.2075 16.7841C40.8326 9.68926 35.484 3.61227 26.6929 3.61227C25.685 3.61227 24.4477 3.67214 23.37 3.8318C20.7755 1.46686 17.9117 0 13.9102 0C6.24663 0 0 6.13686 0 13.9102C0 18.7598 2.1953 22.0727 6.36637 25.0164L6.3065 25.9245C6.3065 32.1113 13.062 41.8005 23.0906 41.8005C23.0906 43.3771 25.0564 45.5225 27.2616 45.9117V46.7H26.4135V46.69Z" fill="white"/>
<path d="M177.929 292.943L165.146 289.67C159.848 288.323 157.373 287.355 157.373 284.102C157.373 280.939 160.197 278.404 166.723 278.404C170.555 278.404 174.047 279.252 176.303 281.617C178.159 283.583 177.819 284.601 179.286 285.389C180.194 285.838 181.202 285.838 182.779 285.838H189.145C190.163 285.838 190.891 285.668 191.45 285.05C191.909 284.541 192.179 283.753 192.179 282.455C192.179 279.522 190.273 275.75 186.89 272.876C182.38 268.994 175.285 266.41 166.723 266.41C151.296 266.41 141.158 273.734 141.158 285.439C141.158 289.61 142.675 292.983 145.149 295.627C148.023 298.73 152.134 300.876 158.102 302.393L171.004 305.646C174.546 306.554 177.71 307.631 177.71 310.715C177.71 315.505 172.64 317.131 167.222 317.131C164.578 317.131 161.824 316.632 159.568 315.505C157.992 314.716 156.645 313.599 155.677 312.072C154.839 310.775 154.549 309.817 153.262 309.088C152.474 308.629 151.516 308.579 150.218 308.579H143.233C141.717 308.579 140.988 309.028 140.479 309.647C139.97 310.266 139.801 311.164 139.801 312.072C139.801 314.317 140.589 317.131 142.445 319.676C146.726 325.413 155.677 330.043 167.112 330.043C178.378 330.043 193.975 325.363 193.975 310.266C193.975 306.374 192.847 303.051 190.772 300.347C188.117 296.944 184.345 294.589 177.929 292.943Z" fill="white"/>
<path d="M49.2845 47.4783C52.2681 51.819 57.2774 60.2111 62.0172 71.3672C62.8554 69.9502 65.39 66.5275 66.4078 65.4499C62.0671 56.6587 54.9723 48.2666 51.869 44.9537L49.2845 47.4783Z" fill="white"/>
<path d="M188.457 111.751C185.084 113.218 177.31 116.022 169.597 116.022C165.755 116.022 162.552 115.692 159 115.233C154.609 114.674 150.438 114.166 146.896 114.166C140.978 114.166 133.654 114.734 126.559 119.744L129.662 123.805C134.502 121.5 142.335 120.372 146.217 120.372C149.769 120.372 153.422 120.761 156.804 121.21C160.636 121.719 165.087 122.278 169.757 122.278C180.354 122.278 190.722 116.65 192.348 115.632C191.051 114.505 189.415 112.928 188.457 111.751Z" fill="white"/>
<path d="M119.744 119.474L116.481 115.243C103.858 120.093 89.8377 127.916 89.8377 135.919C89.8377 140.479 93.2204 144.082 100.814 144.082C111.97 144.082 123.855 138.454 133.384 133.215L132.027 131.359C131.239 130.221 130.561 129.892 129.493 129.892C128.814 129.892 128.076 130.161 127.467 130.451C119.305 134.452 110.454 138.454 102.231 138.454C97.4913 138.454 96.3138 136.997 96.3138 134.951C96.3138 129.213 111.97 122.558 119.744 119.474Z" fill="white"/>
<path d="M228.162 268.565H217.973V250.204C217.973 248.737 217.514 247.67 216.846 246.822C215.998 245.814 214.81 245.195 213.074 245.195H206.707C204.971 245.195 203.784 245.814 202.936 246.822C202.267 247.67 201.808 248.737 201.808 250.204V268.565H198.655C197.477 268.565 196.569 268.904 195.891 269.463C195.152 270.142 194.823 271.04 194.823 272.387V276.269C194.823 277.626 195.152 278.534 195.891 279.192C196.569 279.761 197.467 280.1 198.655 280.1H201.808V308.2C201.808 315.405 203.784 319.915 207.446 323.517C210.819 326.84 215.219 328.926 222.873 328.926H227.663C228.84 328.926 229.738 328.587 230.417 328.018C231.155 327.349 231.594 326.451 231.594 325.094V320.195C231.594 318.847 231.145 317.939 230.417 317.271C229.738 316.702 228.84 316.363 227.663 316.363H226.984C223.941 316.363 221.855 315.574 220.438 314.217C218.752 312.641 217.904 310.226 217.904 307.063V280.09H228.162C229.339 280.09 230.247 279.751 230.916 279.182C231.654 278.514 231.983 277.606 231.983 276.259V272.377C231.983 271.02 231.644 270.122 230.916 269.453C230.257 268.904 229.349 268.565 228.162 268.565Z" fill="white"/>
<path d="M313.788 257.798C314.966 257.798 315.864 257.459 316.542 256.89C317.281 256.222 317.61 255.313 317.61 253.966V248.728C317.61 246.692 317.221 245.674 316.542 244.946C315.934 244.277 314.906 243.888 313.788 243.888C312.88 243.888 311.982 243.998 310.465 244.157L265.512 248.608C264.224 248.728 263.596 249.117 263.147 249.626C262.628 250.194 262.418 250.913 262.418 251.931V254.864C262.418 255.992 262.638 256.491 263.037 256.95C263.536 257.509 264.274 257.788 265.282 257.788H313.788V257.798Z" fill="white"/>
<path d="M58.5247 203.554C54.7528 205.76 50.0728 206.777 45.9616 206.777C44.2154 206.777 43.427 207.117 42.8084 207.735C42.1298 208.404 41.7905 209.422 41.7905 210.829V212.794H43.1975C50.7414 212.794 57.7264 211.617 65.39 205.59L90.3366 186.092C93.889 190.153 102.84 195.781 113.427 195.781C119.404 195.781 123.226 194.324 128.744 192.917C133.025 191.849 137.196 190.881 146.317 190.881H172.73C186.251 190.881 192.787 188.067 199.992 184.016C215.658 175.225 229 160.357 236.554 143.293C234.578 142.046 232.722 140.918 231.145 139.851C222.693 157.652 209.851 170.615 196.669 178.099C190.422 181.651 184.784 183.956 172.62 183.956H146.317C136.917 183.956 131 185.194 126.389 186.371C121.43 187.668 118.267 188.965 113.268 188.965C105.833 188.965 98.9482 185.303 95.6253 181.811L101.832 176.911L98.7386 172.8C96.9325 174.097 74.9096 190.372 70.2895 194.035L70.0201 193.865C70.1299 192.737 70.1299 191.73 70.1299 190.722C70.1299 178.328 64.3822 175.345 55.6509 171.852L49.7335 175.355C61.7279 179.346 64.7115 182.559 64.7115 191.52C64.7115 198.605 62.1869 201.419 58.5247 203.554Z" fill="white"/>
<path d="M2.25517 194.943C6.47614 194.943 6.97507 192.408 6.97507 189.983C6.97507 188.357 6.92518 186.491 6.92518 184.465C6.97507 179.795 7.15468 175.624 14.6985 172.241C17.742 170.894 32.6601 164.807 43.7663 160.077C47.0393 158.67 50.0728 157.493 53.4556 157.493C57.2275 157.493 61.5682 159.119 66.9666 162.342C71.5369 165.047 76.3266 168.709 80.0985 172.93L84.8783 169.268C80.7671 164.428 75.0793 160.087 69.3915 156.714C63.7036 153.342 58.6345 151.356 54.3536 151.356C52.4976 151.356 50.9609 151.695 49.6737 152.034C48.1469 152.434 46.7399 152.883 44.9338 152.883C42.8583 152.883 41.102 152.384 38.5674 149.45C37.6195 148.382 31.5225 141.457 30.2353 139.431C29.6066 138.474 28.489 136.548 28.489 134.302C28.489 133.344 28.6587 132.217 29.2175 131.209C34.4562 135.27 40.9424 137.745 48.8255 138.703L47.7478 133.354C36.432 130.371 24.3678 120.402 24.3678 113.976C24.3678 112.619 24.7071 111.671 25.206 110.473C29.5966 114.535 39.9146 118.766 45.4826 118.766C48.5261 118.766 51.0108 117.748 53.3658 116.79C55.6209 115.892 57.8761 115.004 60.9096 115.004C68.1242 115.004 77.0151 118.486 84.8484 121.809C85.3074 121.979 85.8063 122.099 86.3052 122.099C87.5526 122.099 88.5105 121.53 89.1292 120.342L90.147 118.486C81.5355 113.477 67.7849 108.119 60.6202 108.119C57.3572 108.119 54.9923 108.967 52.7371 109.865C50.2025 110.873 48.0072 111.94 45.6922 111.94C40.0044 111.94 25.4156 106.312 25.4156 100.844C25.4156 94.4178 48.6159 91.9431 51.1605 91.9431L53.4655 86.7043C36.6316 86.7043 16.5745 92.6117 16.5745 100.445C16.5745 102.7 17.8717 103.818 17.8717 105.903C17.8717 108.727 16.5745 110.643 16.5745 113.786C16.5745 115.872 17.8218 118.516 19.2787 120.831C20.8554 123.256 22.7214 124.833 22.7214 126.868C22.7214 128.385 21.7035 130.181 21.7035 133.734C21.7035 141.337 26.0442 145.958 34.4862 155.018L36.1726 156.824C29.1875 159.528 16.1754 165.156 13.1319 166.454C2.64434 170.834 0 176.193 0 184.645C0 187.908 0 191.62 0.21953 194.943H2.25517Z" fill="white"/>
<path d="M73.2232 19.4883C73.2232 19.0393 72.8241 18.5902 72.2753 18.5902C71.7564 18.5902 71.487 18.9295 70.9781 19.3286C68.8326 21.1847 66.9167 23.0407 64.9011 25.3557C62.0272 28.5688 59.6124 32.8397 57.6366 37.5197L60.6701 39.3757C62.7557 36.2724 69.4613 25.685 72.894 20.3365C73.1035 20.0072 73.2232 19.7178 73.2232 19.4883Z" fill="white"/>
<path d="M190.542 256.9C191.271 256.231 191.61 255.323 191.61 253.976V249.007C191.61 247.66 191.271 246.752 190.542 246.083C189.864 245.514 188.965 245.185 187.788 245.185H59.3629C57.2175 245.185 55.8704 245.914 54.9124 247.041C54.1241 248.009 53.6751 249.067 53.6751 250.923V302.073H53.3857C53.3857 302.073 25.3956 252.17 24.0385 249.865C23.0806 248.219 22.0129 247.101 20.6059 246.253C19.1989 245.464 17.732 244.956 14.9181 244.956H5.68782C3.54242 244.956 2.1953 245.684 1.23735 246.812C0.449039 247.77 0 248.847 0 250.703V323.188C0 325.044 0.449039 326.122 1.23735 327.08C2.1953 328.207 3.54242 328.936 5.68782 328.936H10.9266C13.072 328.936 14.4191 328.207 15.3771 327.08C16.1654 326.122 16.6144 325.044 16.6144 323.188V270.82H16.9038C16.9038 270.82 45.9716 322.3 47.1491 324.216C48.7856 326.91 51.5397 328.946 55.4912 328.946H64.452C66.5874 328.946 67.9346 328.217 68.8925 327.09C69.6908 326.132 70.1299 325.054 70.1299 323.198V257.808H187.798C188.965 257.798 189.864 257.459 190.542 256.9Z" fill="white"/>
<path d="M106.282 266.42C86.7343 266.42 75.7478 281.687 75.7478 297.793C75.7478 314.976 87.5226 330.073 106.382 330.073C115.792 330.073 125.022 326.521 130.321 320.274C132.636 317.56 134.502 313.788 134.502 311.483C134.502 310.695 134.332 310.016 133.883 309.517C133.434 308.949 132.756 308.609 131.578 308.609H122.508C120.712 308.609 119.464 309.278 118.566 310.645C115.922 314.527 112.08 316.562 106.452 316.562C98.0102 316.562 92.5419 310.136 92.1527 303.091H131.359C133.105 303.091 134.342 302.702 135.181 301.854C136.149 300.956 136.598 299.659 136.598 297.244C136.598 289.86 134.293 282.196 129.443 276.348C124.484 270.421 116.92 266.42 106.282 266.42ZM92.2525 291.087C92.9909 284.162 98.2796 278.983 106.332 278.983C114.225 278.983 119.684 284.162 120.412 291.087H92.2525Z" fill="white"/>
<path d="M20.107 65.0607C20.107 65.4599 20.3864 65.9588 21.005 65.9588C21.3942 65.9588 21.7335 65.7992 22.4719 65.5098L43.0778 58.5247L42.0699 55.142C33.6779 56.549 27.5909 58.6944 20.6658 64.0928C20.2666 64.4421 20.107 64.6716 20.107 65.0607Z" fill="white"/>
<path d="M32.6102 24.8468C29.4569 22.422 25.9145 20.4562 21.7434 18.7498L21.015 18.5802C20.3963 18.5802 20.1169 19.0292 20.1169 19.4284C20.1169 19.7677 20.2267 20.0471 20.7356 20.4961C25.6351 24.6572 35.1048 32.6102 38.0286 35.025L40.3835 32.3208C37.849 29.3471 35.2445 26.8724 32.6102 24.8468Z" fill="white"/>
</svg>
