<svg width="65" height="65" viewBox="0 0 65 65" fill="none" xmlns="http://www.w3.org/2000/svg">
<path d="M6.08272 55.9862C4.5143 54.3204 -2.90149 46.0783 1.24325 44.2835C6.03448 42.2099 10.0906 39.6116 13.4117 36.4888C15.6608 34.3748 17.8687 32.2072 20.0354 29.9862C20.0824 29.9374 20.1169 29.8779 20.1357 29.8127C20.1545 29.7476 20.1571 29.6789 20.1433 29.6125C19.338 25.7335 20.259 25.4046 23.4564 23.7599C23.5354 23.7195 23.5976 23.6616 23.6432 23.5862C25.5617 20.423 25.4038 19.3099 29.6932 20.1309C29.75 20.1414 29.8085 20.1377 29.8636 20.1203C29.9187 20.1029 29.9686 20.0722 30.009 20.0309C32.7432 17.2493 35.8538 14.302 38.1222 11.502C40.8406 8.14143 42.8196 4.61249 44.5275 0.630907C44.5625 0.548451 44.6178 0.481786 44.6932 0.430909C46.4038 -0.71646 48.9775 0.680907 50.4538 1.67564C55.3362 4.96863 59.438 9.05985 62.759 13.9493C63.6617 15.2756 66.0301 19.2441 63.5748 20.2704C56.2696 23.323 50.9538 27.9783 45.7222 33.4888C45.7031 33.5093 45.6927 33.5363 45.6932 33.5643C45.6937 33.5923 45.705 33.619 45.7248 33.6388C49.3389 37.1774 52.9275 40.7476 56.4906 44.3493C56.9669 44.8283 57.2248 45.5967 56.3722 45.8467C53.6845 46.6274 50.9994 47.4107 48.3169 48.1967C48.231 48.2213 48.1766 48.2765 48.1538 48.3625C47.3976 51.0537 46.6292 53.7406 45.8485 56.423C45.752 56.7546 45.4608 56.9099 44.9748 56.8888C44.8906 56.8853 44.8178 56.8528 44.7564 56.7914L33.609 45.7362C33.5914 45.7191 33.5678 45.7096 33.5432 45.7096C33.5187 45.7096 33.4951 45.7191 33.4775 45.7362C27.9011 51.1414 23.438 56.2572 20.3275 63.3388C18.1801 68.2309 7.69325 57.6967 6.08272 55.9862ZM44.6643 4.15459C43.3345 6.7967 41.7968 9.27301 40.0511 11.5835C38.2301 13.9967 35.9196 16.3493 33.6538 18.5414C33.6416 18.5533 33.6335 18.5686 33.6305 18.5853C33.6275 18.602 33.6297 18.6193 33.637 18.6346C33.6442 18.65 33.6561 18.6627 33.6709 18.671C33.6857 18.6793 33.7027 18.6827 33.7196 18.6809C35.3327 18.5283 36.6932 20.173 37.7669 21.252C37.8301 21.3151 37.9046 21.3555 37.9906 21.373C39.459 21.6651 41.6038 21.5993 42.4275 23.073C42.9143 23.9388 43.0301 25.5046 43.2696 26.6546C43.2871 26.7441 43.3283 26.8213 43.3932 26.8862C44.7775 28.2467 46.0617 29.1783 45.9196 30.9046C45.909 31.0449 45.952 31.0634 46.0485 30.9599C50.4196 26.2467 54.8511 22.8625 60.4143 19.9704C60.5055 19.923 60.5055 19.8748 60.4143 19.8256C55.0275 16.9625 50.3354 12.2835 46.7722 7.3888C46.0073 6.33793 45.3468 5.25985 44.7906 4.15459C44.7485 4.07214 44.7064 4.07214 44.6643 4.15459ZM20.4064 34.3862C21.0301 35.3125 22.0617 35.9888 22.6433 36.973C23.1511 37.8309 23.2275 38.9204 23.4143 39.9599C23.5459 40.6941 23.7932 41.1046 24.5485 41.1941C25.7222 41.3335 27.0617 41.452 28.0169 42.2283C28.6573 42.7511 29.2687 43.3125 29.8511 43.9125C30.1757 44.2476 30.5792 44.3037 31.0617 44.0809C32.0459 43.6283 33.1196 42.902 34.188 42.8546C35.1073 42.8125 36.0617 42.9151 37.0511 43.1625C37.609 43.2993 37.9959 43.0809 38.2643 42.5651C38.888 41.3625 39.4643 39.8388 40.738 39.1809C41.5196 38.7809 43.4222 38.1625 43.1827 37.0335C42.8959 35.6651 42.5696 34.1888 43.1801 32.923C43.6011 32.0493 44.8196 30.5283 43.8301 29.6677C43.0652 29.0028 42.4371 28.302 41.9459 27.5651C41.2248 26.4862 41.6064 23.523 40.1459 23.3888C37.4432 23.1414 36.7748 22.6625 34.9406 20.8151C34.4248 20.2967 34.1432 20.1783 33.4775 20.5046C32.802 20.8362 32.124 21.1616 31.4433 21.4809C30.2301 22.052 28.6196 21.5783 27.309 21.373C26.4064 21.2309 25.4275 23.7046 24.9564 24.3941C24.3222 25.323 22.6275 25.9967 21.6432 26.5546C21.5661 26.5985 21.5134 26.6616 21.4853 26.7441C20.9853 28.2151 22.2196 29.673 21.5459 31.323C21.159 32.273 20.5669 33.0993 20.3564 34.1388C20.3389 34.2283 20.3555 34.3107 20.4064 34.3862ZM11.2617 58.773C13.2775 60.4888 15.6696 62.273 18.2275 63.0914C18.5275 63.1879 18.7397 63.0906 18.8643 62.7993C20.6397 58.6344 23.0266 54.7695 26.0248 51.2046C26.9406 50.1134 28.5643 48.4002 30.8959 46.0651C30.9661 45.9949 30.9511 45.9599 30.8511 45.9599C28.3564 45.9414 27.9222 43.3204 26.0932 43.1177C22.5011 42.7177 21.8696 41.9888 21.4775 38.4362C21.2827 36.6625 18.5722 36.2572 18.6748 33.7467C18.6801 33.6327 18.6424 33.616 18.5617 33.6967C13.4827 38.8914 8.34061 42.9546 1.72483 45.7756C1.64454 45.8105 1.57911 45.8724 1.54011 45.9504C1.5011 46.0284 1.49103 46.1175 1.51167 46.202C1.7643 47.2669 2.18097 48.2485 2.76167 49.1467C5.08535 52.7388 8.0722 56.052 11.2617 58.773Z" fill="white"/>
<path d="M32.3064 39.5309C36.3003 39.5309 39.538 36.2932 39.538 32.2994C39.538 28.3055 36.3003 25.0678 32.3064 25.0678C28.3125 25.0678 25.0748 28.3055 25.0748 32.2994C25.0748 36.2932 28.3125 39.5309 32.3064 39.5309Z" fill="white"/>
</svg>
